<svg width="46" height="12" viewBox="0 0 46 12" fill="none" xmlns="http://www.w3.org/2000/svg">
<path d="M6.94781 1.23082L7.06967 9.22989L5.6089 9.25214L2.05214 4.27058L1.99355 4.27148L2.07025 9.30605L0.379036 9.33181L0.257182 1.33274L1.74138 1.31013L5.27074 6.2882L5.34105 6.28713L5.26441 1.25646L6.94781 1.23082ZM11.7783 1.15723L11.9002 9.1563L10.209 9.18207L10.1116 2.78828L10.0647 2.78899L8.25035 3.9652L8.22751 2.46537L10.1886 1.18145L11.7783 1.15723ZM13.6588 7.7231L13.6385 6.39122L16.8978 1.07924L18.0461 1.06175L18.0742 2.90529L17.3946 2.91564L15.3401 6.27935L15.3411 6.34185L20.0866 6.26955L20.1073 7.62487L13.6588 7.7231ZM17.5196 9.0707L17.492 7.25841L17.5143 6.66816L17.429 1.07115L19.0148 1.04699L19.1366 9.04607L17.5196 9.0707ZM22.9125 7.89467L22.8761 8.32496C22.8475 8.66919 22.7876 9.01259 22.6964 9.35516C22.6079 9.7003 22.5137 10.013 22.4138 10.2932C22.3165 10.5733 22.2378 10.7933 22.1777 10.9531L21.0997 10.9695C21.1365 10.8153 21.1866 10.5997 21.2501 10.3226C21.3136 10.0482 21.3727 9.73995 21.4274 9.39793C21.4821 9.05591 21.5146 8.70772 21.5248 8.35336L21.5377 7.91561L22.9125 7.89467ZM27.2936 9.03119C26.7416 9.0396 26.2479 8.94555 25.8126 8.74903C25.3798 8.55248 25.0345 8.27776 24.7765 7.92488C24.5184 7.57199 24.3807 7.16519 24.3633 6.70446L26.0037 6.67947C26.0267 6.98906 26.1607 7.23835 26.4058 7.42734C26.6509 7.61634 26.9401 7.7083 27.2734 7.70322C27.539 7.69918 27.7724 7.63702 27.9737 7.51675C28.1776 7.39384 28.3352 7.22606 28.4466 7.0134C28.5605 6.7981 28.6154 6.55244 28.6112 6.27643C28.6069 5.99521 28.5432 5.74876 28.4202 5.53707C28.2998 5.32533 28.1345 5.16117 27.9244 5.04456C27.7142 4.92796 27.475 4.8704 27.2068 4.87188C26.9724 4.87545 26.7453 4.92709 26.5255 5.0268C26.3082 5.12648 26.1397 5.26057 26.0198 5.42908L24.512 5.18249L24.8266 0.958459L29.7167 0.883966L29.7377 2.26662L26.242 2.31987L26.0655 4.3267L26.1124 4.32598C26.25 4.12595 26.4597 3.95867 26.7416 3.82415C27.0234 3.68964 27.3401 3.6197 27.6916 3.61435C28.1733 3.60701 28.6047 3.71373 28.9857 3.93452C29.3667 4.1553 29.6696 4.46192 29.8943 4.85438C30.1191 5.24423 30.234 5.69565 30.2392 6.20866C30.25 6.74762 30.1324 7.22863 29.8862 7.6517C29.6425 8.07213 29.2973 8.40555 28.8505 8.65197C28.4062 8.89574 27.8873 9.02215 27.2936 9.03119ZM34.5984 8.98633C33.9266 8.99396 33.346 8.83742 32.8567 8.51671C32.37 8.19596 31.9917 7.72641 31.7218 7.10805C31.4546 6.48965 31.3156 5.74299 31.3049 4.86805C31.2916 3.99575 31.4091 3.25039 31.6576 2.63195C31.9086 2.01347 32.2725 1.54042 32.7494 1.21281C33.2288 0.882553 33.8031 0.712328 34.4722 0.702133C35.1414 0.691939 35.7194 0.844613 36.206 1.16015C36.6952 1.47565 37.0747 1.93868 37.3445 2.54922C37.6142 3.15717 37.7544 3.8973 37.7651 4.76964C37.7784 5.64714 37.6597 6.39904 37.4087 7.02533C37.1604 7.65158 36.7979 8.13242 36.3212 8.46784C35.8445 8.80327 35.2702 8.97609 34.5984 8.98633ZM34.5771 7.58415C35.0354 7.57717 35.3977 7.34115 35.6641 6.8761C35.9305 6.41105 36.0553 5.71766 36.0387 4.79594C36.0295 4.18924 35.9593 3.68504 35.8281 3.28334C35.6996 2.88161 35.5205 2.58092 35.2909 2.38126C35.0639 2.18158 34.798 2.08405 34.4934 2.08869C34.0377 2.09563 33.6766 2.32902 33.4102 2.78887C33.1437 3.24871 33.0161 3.93302 33.0273 4.84181C33.0367 5.45632 33.1057 5.96835 33.2343 6.3779C33.3656 6.7848 33.546 7.08938 33.7757 7.29163C34.0053 7.49128 34.2724 7.58879 34.5771 7.58415ZM42.1708 8.87097C41.499 8.8786 40.9184 8.72207 40.4291 8.40136C39.9424 8.08061 39.5641 7.61105 39.2942 6.9927C39.0269 6.3743 38.888 5.62763 38.8772 4.75269C38.8639 3.8804 38.9815 3.13503 39.2299 2.51659C39.481 1.89812 39.8449 1.42507 40.3217 1.09746C40.8011 0.767199 41.3754 0.596973 42.0446 0.586779C42.7138 0.576585 43.2917 0.729258 43.7784 1.0448C44.2676 1.3603 44.6471 1.82332 44.9168 2.43387C45.1865 3.04181 45.3267 3.78195 45.3374 4.65428C45.3508 5.53179 45.232 6.28368 44.9811 6.90997C44.7328 7.53622 44.3703 8.01706 43.8936 8.35249C43.4169 8.68791 42.8426 8.86074 42.1708 8.87097ZM42.1495 7.46879C42.6077 7.46181 42.9701 7.2258 43.2364 6.76075C43.5028 6.2957 43.6277 5.60231 43.6111 4.68058C43.6018 4.07388 43.5316 3.56968 43.4005 3.16799C43.272 2.76625 43.0929 2.46556 42.8633 2.26591C42.6362 2.06622 42.3704 1.9687 42.0657 1.97334C41.6101 1.98028 41.249 2.21367 40.9825 2.67351C40.7161 3.13335 40.5884 3.81767 40.5997 4.72646C40.609 5.34097 40.6781 5.853 40.8067 6.26254C40.9379 6.66945 41.1184 6.97402 41.348 7.17628C41.5777 7.37593 41.8448 7.47343 42.1495 7.46879Z" fill="#012A4A"/>
</svg>
