<svg width="56" height="9" viewBox="0 0 56 9" fill="none" xmlns="http://www.w3.org/2000/svg">
<path d="M1.59472 8.40293L0.671529 8.41699L3.2309 1.10443L4.13988 1.09059L6.9208 8.32179L5.99762 8.33586L3.73132 2.24751L3.67451 2.24838L1.59472 8.40293ZM1.89231 5.55716L5.61347 5.50047L5.62537 6.28163L1.90421 6.33832L1.89231 5.55716ZM7.99845 8.30538L7.91537 2.85146L8.75334 2.8387L8.83642 8.29261L7.99845 8.30538ZM8.32761 1.93599C8.16427 1.93848 8.02258 1.88499 7.90253 1.77554C7.78484 1.66605 7.72481 1.53319 7.72243 1.37696C7.72005 1.22073 7.77601 1.0861 7.8903 0.973077C8.00697 0.860018 8.14696 0.802245 8.3103 0.799756C8.47363 0.797268 8.61414 0.850769 8.73182 0.960258C8.85188 1.06971 8.91309 1.20255 8.91547 1.35879C8.91785 1.51502 8.86071 1.64966 8.74405 1.76272C8.62975 1.87574 8.49094 1.9335 8.32761 1.93599ZM10.3712 8.26923L10.2881 2.81532L11.0977 2.80299L11.1103 3.62675L11.1671 3.62589C11.2624 3.35452 11.4389 3.13282 11.6968 2.96078C11.9546 2.78875 12.2468 2.70024 12.5735 2.69527C12.6351 2.69433 12.712 2.69434 12.8044 2.6953C12.8967 2.69626 12.9666 2.69875 13.014 2.70276L13.027 3.55494C12.9985 3.54827 12.9332 3.53861 12.8312 3.52596C12.7315 3.5109 12.6261 3.50422 12.5148 3.50591C12.2497 3.50995 12.0138 3.56919 11.8072 3.68362C11.6029 3.79564 11.4419 3.94963 11.3241 4.14557C11.2087 4.33912 11.1529 4.55898 11.1566 4.80516L11.2092 8.25647L10.3712 8.26923ZM16.7221 2.71731L16.7329 3.42745L13.9065 3.47051L13.8957 2.76036L16.7221 2.71731ZM14.6995 1.44115L15.5375 1.42838L15.6167 6.62664C15.6203 6.86336 15.6573 7.04037 15.7278 7.15768C15.8006 7.27259 15.8917 7.34934 16.0012 7.38792C16.113 7.4241 16.2305 7.44125 16.3536 7.43938C16.4459 7.43797 16.5216 7.43208 16.5806 7.42171C16.6396 7.40897 16.6868 7.39878 16.7222 7.39114L16.9041 8.1413C16.8476 8.16347 16.7687 8.18598 16.6672 8.20884C16.5658 8.23406 16.4369 8.24786 16.2807 8.25024C16.044 8.25385 15.8112 8.20649 15.5824 8.10816C15.356 8.0098 15.1666 7.8576 15.0143 7.65156C14.8644 7.44549 14.787 7.18385 14.7822 6.86665L14.6995 1.44115ZM18.0656 8.15202L17.9826 2.6981L18.8205 2.68534L18.9036 8.13925L18.0656 8.15202ZM18.3948 1.78263C18.2315 1.78512 18.0898 1.73163 17.9697 1.62218C17.852 1.51269 17.792 1.37983 17.7896 1.2236C17.7872 1.06737 17.8432 0.932741 17.9575 0.819718C18.0742 0.706659 18.2142 0.648885 18.3775 0.646397C18.5408 0.643909 18.6813 0.697409 18.799 0.806898C18.9191 0.916351 18.9803 1.04919 18.9827 1.20543C18.985 1.36166 18.9279 1.4963 18.8112 1.60936C18.6969 1.72239 18.5581 1.78014 18.3948 1.78263ZM20.4384 8.11587L20.3553 2.66196L21.1649 2.64963L21.1779 3.5018L21.2489 3.50072C21.3581 3.20783 21.5381 2.97897 21.7889 2.81415C22.0397 2.64695 22.3427 2.56065 22.6977 2.55525C23.0575 2.54976 23.3582 2.62687 23.5998 2.78656C23.8437 2.94385 24.0353 3.16704 24.1747 3.45615L24.2315 3.45528C24.3669 3.17146 24.573 2.94458 24.8498 2.77462C25.1265 2.6023 25.4602 2.51316 25.8508 2.50721C26.3384 2.49978 26.7396 2.64639 27.0543 2.94703C27.3691 3.2453 27.5313 3.71518 27.5411 4.35668L27.5967 8.00683L26.7587 8.01959L26.7031 4.36945C26.697 3.96703 26.5825 3.6811 26.3597 3.51165C26.137 3.3422 25.8764 3.25975 25.5782 3.26429C25.1947 3.27014 24.8994 3.39065 24.6922 3.62584C24.4851 3.85866 24.3842 4.15143 24.3895 4.50413L24.4436 8.05486L23.5915 8.06784L23.5346 4.33248C23.5298 4.02238 23.4254 3.77418 23.2213 3.58787C23.0172 3.3992 22.7565 3.30728 22.4393 3.31211C22.2216 3.31543 22.0189 3.37652 21.8313 3.4954C21.646 3.61424 21.497 3.77751 21.3841 3.98522C21.2736 4.19053 21.2204 4.42692 21.2245 4.69441L21.2764 8.10311L20.4384 8.11587ZM31.4172 8.06228C30.8917 8.07028 30.4366 7.9612 30.052 7.73502C29.6697 7.50644 29.3723 7.18423 29.16 6.76838C28.95 6.35013 28.8408 5.86168 28.8323 5.30303C28.8238 4.74439 28.918 4.25047 29.1151 3.82128C29.3145 3.38969 29.5959 3.05156 29.9591 2.80689C30.3247 2.55981 30.7537 2.43252 31.2461 2.42502C31.5302 2.4207 31.8114 2.46377 32.0898 2.55423C32.3682 2.6447 32.6226 2.79472 32.8531 3.00431C33.0836 3.21152 33.2689 3.48808 33.4091 3.834C33.5494 4.17992 33.6234 4.60734 33.6311 5.11628L33.6365 5.47135L29.4325 5.53539L29.4214 4.81105L32.7733 4.75999C32.7686 4.45226 32.7029 4.1786 32.5761 3.93903C32.4517 3.69942 32.276 3.5115 32.049 3.37526C31.8244 3.23899 31.5606 3.17316 31.2576 3.17778C30.9238 3.18286 30.6363 3.27011 30.395 3.43953C30.156 3.60654 29.9734 3.82241 29.8472 4.08715C29.7211 4.35188 29.6602 4.63457 29.6648 4.9352L29.6722 5.41809C29.6785 5.82998 29.7548 6.17805 29.9012 6.46231C30.0499 6.74417 30.2532 6.95772 30.5112 7.10295C30.769 7.24582 31.0672 7.31468 31.4057 7.30952C31.6259 7.30617 31.8243 7.27237 32.0009 7.20812C32.1798 7.14146 32.3334 7.04441 32.4617 6.91697C32.5899 6.78716 32.6881 6.62703 32.7562 6.43658L33.5693 6.65149C33.4882 6.92738 33.3487 7.17101 33.1507 7.38238C32.9526 7.59139 32.7065 7.75614 32.4124 7.87664C32.1182 7.99477 31.7865 8.05665 31.4172 8.06228ZM41.5593 3.56068L40.8098 3.78519C40.7606 3.66045 40.6889 3.53961 40.5948 3.42266C40.503 3.3033 40.3784 3.20576 40.2209 3.13002C40.0635 3.05428 39.8629 3.01827 39.6191 3.02199C39.2853 3.02707 39.0083 3.10824 38.7882 3.2655C38.5703 3.42035 38.4632 3.61495 38.4668 3.84929C38.47 4.0576 38.5482 4.22097 38.7015 4.33938C38.8549 4.4578 39.0931 4.5548 39.4163 4.63038L40.2289 4.81689C40.7183 4.92781 41.0844 5.10337 41.3272 5.34354C41.57 5.58135 41.6943 5.89081 41.7001 6.27192C41.7048 6.58438 41.6191 6.86508 41.443 7.114C41.2692 7.36289 41.0236 7.56078 40.7062 7.70768C40.3888 7.85457 40.0182 7.93125 39.5945 7.93771C39.0382 7.94618 38.576 7.83247 38.2078 7.59657C37.8396 7.36068 37.6034 7.01149 37.4993 6.549L38.2916 6.33805C38.3718 6.63042 38.5184 6.84838 38.7313 6.99194C38.9466 7.13546 39.2258 7.2046 39.5691 7.19937C39.9597 7.19342 40.2685 7.10585 40.4956 6.93665C40.725 6.76505 40.8379 6.56207 40.8344 6.32772C40.8315 6.13835 40.7628 5.98076 40.6283 5.85496C40.4937 5.72678 40.2887 5.63283 40.0131 5.5731L39.1009 5.3739C38.5996 5.26316 38.2299 5.08529 37.9918 4.84031C37.756 4.59293 37.6352 4.28105 37.6295 3.90467C37.6248 3.59694 37.707 3.3234 37.8762 3.08405C38.0478 2.84467 38.2829 2.65522 38.5814 2.51572C38.8824 2.37617 39.2246 2.30348 39.6081 2.29764C40.1478 2.28942 40.5733 2.40132 40.8846 2.63335C41.1983 2.86534 41.4232 3.17445 41.5593 3.56068ZM45.202 7.85228C44.7096 7.85978 44.2759 7.74919 43.9006 7.5205C43.5278 7.29178 43.234 6.96833 43.0193 6.55015C42.8069 6.13194 42.6964 5.64114 42.6879 5.07776C42.6792 4.50964 42.7746 4.01215 42.9741 3.5853C43.176 3.1584 43.4597 2.82497 43.8255 2.585C44.1935 2.34499 44.6237 2.22123 45.1161 2.21373C45.6085 2.20623 46.0411 2.31684 46.4139 2.54557C46.7891 2.77425 47.0829 3.09889 47.2953 3.51947C47.5101 3.94002 47.6218 4.43435 47.6305 5.00246C47.6391 5.56584 47.5424 6.0598 47.3405 6.48432C47.141 6.90881 46.8572 7.24106 46.4891 7.48107C46.1234 7.72105 45.6944 7.84478 45.202 7.85228ZM45.1905 7.09953C45.5645 7.09383 45.8708 6.99327 46.1093 6.79786C46.3479 6.60244 46.5228 6.34762 46.634 6.03339C46.7452 5.71915 46.7981 5.37977 46.7925 5.01523C46.7869 4.65069 46.7238 4.31188 46.603 3.99882C46.4822 3.68576 46.2996 3.43401 46.0552 3.24358C45.8108 3.05315 45.5016 2.96079 45.1276 2.96649C44.7536 2.97218 44.4473 3.07392 44.2088 3.27171C43.9703 3.46949 43.7955 3.72668 43.6843 4.04328C43.5731 4.35988 43.5203 4.70045 43.5258 5.06499C43.5314 5.42953 43.5945 5.76715 43.7153 6.07785C43.836 6.38854 44.0186 6.63792 44.263 6.82598C44.5073 7.01405 44.8165 7.10523 45.1905 7.09953ZM49.6779 0.396878L49.7887 7.66876L48.9507 7.68153L48.84 0.409643L49.6779 0.396878ZM53.3847 7.72763C52.9302 7.73456 52.5272 7.62586 52.1757 7.40155C51.8242 7.17487 51.547 6.85235 51.3441 6.43399C51.1412 6.01326 51.0353 5.51411 51.0265 4.93652C51.0178 4.36367 51.1085 3.86507 51.2985 3.44073C51.4886 3.01638 51.757 2.68673 52.1039 2.45178C52.4507 2.21683 52.8537 2.09586 53.313 2.08887C53.668 2.08346 53.9494 2.13836 54.1572 2.25358C54.3673 2.3664 54.5279 2.49654 54.639 2.64401C54.7525 2.78908 54.8408 2.90849 54.9038 3.00224L54.9748 3.00116L54.9339 0.316811L55.7719 0.304045L55.8826 7.57593L55.0731 7.58826L55.0603 6.75029L54.9609 6.75181C54.9008 6.85216 54.8152 6.97896 54.7039 7.13219C54.5925 7.28305 54.4324 7.41926 54.2235 7.54083C54.0146 7.66003 53.735 7.7223 53.3847 7.72763ZM53.4868 6.97315C53.8229 6.96803 54.1057 6.87612 54.335 6.69741C54.5643 6.51634 54.7369 6.26866 54.8528 5.95435C54.9688 5.63768 55.0236 5.27341 55.0173 4.86152C55.0111 4.45437 54.9465 4.09902 54.8235 3.79546C54.7005 3.48953 54.5216 3.25312 54.2871 3.08622C54.0525 2.91695 53.7647 2.83491 53.4238 2.8401C53.0688 2.84551 52.7743 2.94116 52.5403 3.12703C52.3087 3.31051 52.1361 3.55819 52.0225 3.87009C51.9112 4.17959 51.8584 4.52608 51.8643 4.90955C51.8702 5.29777 51.9347 5.64957 52.0579 5.96497C52.1835 6.27796 52.3648 6.52617 52.602 6.70961C52.8415 6.89064 53.1365 6.97848 53.4868 6.97315Z" fill="#012A4A"/>
</svg>
