<svg width="551" height="151" viewBox="0 0 551 151" fill="none" xmlns="http://www.w3.org/2000/svg">
<rect width="551" height="151" rx="24" fill="#DE3D6D"/>
<path d="M224.023 37.5L220.841 25.8636H222.273L224.705 35.3409H224.818L227.295 25.8636H228.886L231.364 35.3409H231.477L233.909 25.8636H235.341L232.159 37.5H230.705L228.136 28.2273H228.045L225.477 37.5H224.023ZM238.67 37.7045C238.117 37.7045 237.616 37.6004 237.165 37.392C236.714 37.1799 236.356 36.875 236.091 36.4773C235.826 36.0758 235.693 35.5909 235.693 35.0227C235.693 34.5227 235.792 34.1174 235.989 33.8068C236.186 33.4924 236.449 33.2462 236.778 33.0682C237.108 32.8902 237.472 32.7576 237.869 32.6705C238.271 32.5795 238.674 32.5076 239.08 32.4545C239.61 32.3864 240.04 32.3352 240.369 32.3011C240.703 32.2633 240.945 32.2008 241.097 32.1136C241.252 32.0265 241.33 31.875 241.33 31.6591V31.6136C241.33 31.053 241.176 30.6174 240.869 30.3068C240.566 29.9962 240.106 29.8409 239.489 29.8409C238.848 29.8409 238.347 29.9811 237.983 30.2614C237.619 30.5417 237.364 30.8409 237.216 31.1591L235.943 30.7045C236.17 30.1742 236.473 29.7614 236.852 29.4659C237.235 29.1667 237.652 28.9583 238.102 28.8409C238.557 28.7197 239.004 28.6591 239.443 28.6591C239.723 28.6591 240.045 28.6932 240.409 28.7614C240.777 28.8258 241.131 28.9602 241.472 29.1648C241.816 29.3693 242.102 29.678 242.33 30.0909C242.557 30.5038 242.67 31.0568 242.67 31.75V37.5H241.33V36.3182H241.261C241.17 36.5076 241.019 36.7102 240.807 36.9261C240.595 37.142 240.313 37.3258 239.96 37.4773C239.608 37.6288 239.178 37.7045 238.67 37.7045ZM238.875 36.5C239.405 36.5 239.852 36.3958 240.216 36.1875C240.583 35.9792 240.86 35.7102 241.045 35.3807C241.235 35.0511 241.33 34.7045 241.33 34.3409V33.1136C241.273 33.1818 241.148 33.2443 240.955 33.3011C240.765 33.3542 240.545 33.4015 240.295 33.4432C240.049 33.4811 239.809 33.5152 239.574 33.5455C239.343 33.572 239.155 33.5947 239.011 33.6136C238.663 33.6591 238.337 33.733 238.034 33.8352C237.735 33.9337 237.492 34.0833 237.307 34.2841C237.125 34.4811 237.034 34.75 237.034 35.0909C237.034 35.5568 237.206 35.9091 237.551 36.1477C237.9 36.3826 238.341 36.5 238.875 36.5ZM246.459 25.8636V37.5H245.118V25.8636H246.459ZM250.256 25.8636V37.5H248.915V25.8636H250.256ZM256.371 37.6818C255.53 37.6818 254.804 37.4962 254.195 37.125C253.589 36.75 253.121 36.2273 252.791 35.5568C252.465 34.8826 252.303 34.0985 252.303 33.2045C252.303 32.3106 252.465 31.5227 252.791 30.8409C253.121 30.1553 253.579 29.6212 254.166 29.2386C254.757 28.8523 255.446 28.6591 256.234 28.6591C256.689 28.6591 257.138 28.7348 257.581 28.8864C258.024 29.0379 258.428 29.2841 258.791 29.625C259.155 29.9621 259.445 30.4091 259.661 30.9659C259.876 31.5227 259.984 32.2083 259.984 33.0227V33.5909H253.257V32.4318H258.621C258.621 31.9394 258.522 31.5 258.325 31.1136C258.132 30.7273 257.856 30.4223 257.496 30.1989C257.14 29.9754 256.719 29.8636 256.234 29.8636C255.7 29.8636 255.238 29.9962 254.848 30.2614C254.462 30.5227 254.164 30.8636 253.956 31.2841C253.748 31.7045 253.643 32.1553 253.643 32.6364V33.4091C253.643 34.0682 253.757 34.6269 253.984 35.0852C254.215 35.5398 254.536 35.8864 254.945 36.125C255.354 36.3598 255.829 36.4773 256.371 36.4773C256.723 36.4773 257.041 36.428 257.325 36.3295C257.613 36.2273 257.861 36.0758 258.07 35.875C258.278 35.6705 258.439 35.4167 258.553 35.1136L259.848 35.4773C259.712 35.9167 259.482 36.303 259.161 36.6364C258.839 36.9659 258.441 37.2235 257.967 37.4091C257.494 37.5909 256.962 37.6818 256.371 37.6818ZM265.82 28.7727V29.9091H261.297V28.7727H265.82ZM262.615 26.6818H263.956V35C263.956 35.3788 264.011 35.6629 264.121 35.8523C264.234 36.0379 264.378 36.1629 264.553 36.2273C264.731 36.2879 264.918 36.3182 265.115 36.3182C265.263 36.3182 265.384 36.3106 265.479 36.2955C265.573 36.2765 265.649 36.2614 265.706 36.25L265.979 37.4545C265.888 37.4886 265.761 37.5227 265.598 37.5568C265.435 37.5947 265.229 37.6136 264.979 37.6136C264.6 37.6136 264.229 37.5322 263.865 37.3693C263.505 37.2064 263.206 36.9583 262.967 36.625C262.732 36.2917 262.615 35.8712 262.615 35.3636V26.6818ZM272.518 37.5V25.8636H273.859V30.1591H273.973C274.071 30.0076 274.208 29.8144 274.382 29.5795C274.56 29.3409 274.814 29.1288 275.143 28.9432C275.477 28.7538 275.928 28.6591 276.496 28.6591C277.231 28.6591 277.878 28.8428 278.439 29.2102C279 29.5777 279.437 30.0985 279.751 30.7727C280.066 31.447 280.223 32.2424 280.223 33.1591C280.223 34.0833 280.066 34.8845 279.751 35.5625C279.437 36.2367 279.001 36.7595 278.445 37.1307C277.888 37.4981 277.246 37.6818 276.518 37.6818C275.958 37.6818 275.509 37.589 275.172 37.4034C274.835 37.214 274.575 37 274.393 36.7614C274.212 36.5189 274.071 36.3182 273.973 36.1591H273.814V37.5H272.518ZM273.837 33.1364C273.837 33.7955 273.933 34.3769 274.126 34.8807C274.32 35.3807 274.602 35.7727 274.973 36.0568C275.344 36.3371 275.799 36.4773 276.337 36.4773C276.897 36.4773 277.365 36.3295 277.74 36.0341C278.119 35.7348 278.403 35.3333 278.592 34.8295C278.786 34.322 278.882 33.7576 278.882 33.1364C278.882 32.5227 278.787 31.9697 278.598 31.4773C278.412 30.9811 278.13 30.589 277.751 30.3011C277.376 30.0095 276.905 29.8636 276.337 29.8636C275.791 29.8636 275.333 30.0019 274.962 30.2784C274.59 30.5511 274.31 30.9337 274.121 31.4261C273.931 31.9148 273.837 32.4848 273.837 33.1364ZM284.842 37.7045C284.289 37.7045 283.787 37.6004 283.337 37.392C282.886 37.1799 282.528 36.875 282.263 36.4773C281.998 36.0758 281.865 35.5909 281.865 35.0227C281.865 34.5227 281.964 34.1174 282.161 33.8068C282.357 33.4924 282.621 33.2462 282.95 33.0682C283.28 32.8902 283.643 32.7576 284.041 32.6705C284.443 32.5795 284.846 32.5076 285.251 32.4545C285.782 32.3864 286.212 32.3352 286.541 32.3011C286.875 32.2633 287.117 32.2008 287.268 32.1136C287.424 32.0265 287.501 31.875 287.501 31.6591V31.6136C287.501 31.053 287.348 30.6174 287.041 30.3068C286.738 29.9962 286.278 29.8409 285.661 29.8409C285.02 29.8409 284.518 29.9811 284.155 30.2614C283.791 30.5417 283.536 30.8409 283.388 31.1591L282.115 30.7045C282.342 30.1742 282.645 29.7614 283.024 29.4659C283.407 29.1667 283.823 28.9583 284.274 28.8409C284.729 28.7197 285.176 28.6591 285.615 28.6591C285.895 28.6591 286.217 28.6932 286.581 28.7614C286.948 28.8258 287.303 28.9602 287.643 29.1648C287.988 29.3693 288.274 29.678 288.501 30.0909C288.729 30.5038 288.842 31.0568 288.842 31.75V37.5H287.501V36.3182H287.433C287.342 36.5076 287.191 36.7102 286.979 36.9261C286.767 37.142 286.484 37.3258 286.132 37.4773C285.78 37.6288 285.35 37.7045 284.842 37.7045ZM285.047 36.5C285.577 36.5 286.024 36.3958 286.388 36.1875C286.755 35.9792 287.032 35.7102 287.217 35.3807C287.407 35.0511 287.501 34.7045 287.501 34.3409V33.1136C287.445 33.1818 287.32 33.2443 287.126 33.3011C286.937 33.3542 286.717 33.4015 286.467 33.4432C286.221 33.4811 285.981 33.5152 285.746 33.5455C285.515 33.572 285.327 33.5947 285.183 33.6136C284.835 33.6591 284.509 33.733 284.206 33.8352C283.907 33.9337 283.664 34.0833 283.479 34.2841C283.297 34.4811 283.206 34.75 283.206 35.0909C283.206 35.5568 283.378 35.9091 283.723 36.1477C284.071 36.3826 284.513 36.5 285.047 36.5ZM292.631 25.8636V37.5H291.29V25.8636H292.631ZM297.655 37.7045C297.102 37.7045 296.6 37.6004 296.149 37.392C295.698 37.1799 295.34 36.875 295.075 36.4773C294.81 36.0758 294.678 35.5909 294.678 35.0227C294.678 34.5227 294.776 34.1174 294.973 33.8068C295.17 33.4924 295.433 33.2462 295.763 33.0682C296.092 32.8902 296.456 32.7576 296.854 32.6705C297.255 32.5795 297.659 32.5076 298.064 32.4545C298.594 32.3864 299.024 32.3352 299.354 32.3011C299.687 32.2633 299.929 32.2008 300.081 32.1136C300.236 32.0265 300.314 31.875 300.314 31.6591V31.6136C300.314 31.053 300.161 30.6174 299.854 30.3068C299.551 29.9962 299.09 29.8409 298.473 29.8409C297.833 29.8409 297.331 29.9811 296.967 30.2614C296.604 30.5417 296.348 30.8409 296.2 31.1591L294.928 30.7045C295.155 30.1742 295.458 29.7614 295.837 29.4659C296.219 29.1667 296.636 28.9583 297.087 28.8409C297.541 28.7197 297.988 28.6591 298.428 28.6591C298.708 28.6591 299.03 28.6932 299.393 28.7614C299.761 28.8258 300.115 28.9602 300.456 29.1648C300.801 29.3693 301.087 29.678 301.314 30.0909C301.541 30.5038 301.655 31.0568 301.655 31.75V37.5H300.314V36.3182H300.246C300.155 36.5076 300.003 36.7102 299.791 36.9261C299.579 37.142 299.297 37.3258 298.945 37.4773C298.592 37.6288 298.162 37.7045 297.655 37.7045ZM297.859 36.5C298.39 36.5 298.837 36.3958 299.2 36.1875C299.568 35.9792 299.844 35.7102 300.03 35.3807C300.219 35.0511 300.314 34.7045 300.314 34.3409V33.1136C300.257 33.1818 300.132 33.2443 299.939 33.3011C299.75 33.3542 299.53 33.4015 299.28 33.4432C299.034 33.4811 298.793 33.5152 298.558 33.5455C298.327 33.572 298.14 33.5947 297.996 33.6136C297.647 33.6591 297.321 33.733 297.018 33.8352C296.719 33.9337 296.477 34.0833 296.291 34.2841C296.109 34.4811 296.018 34.75 296.018 35.0909C296.018 35.5568 296.191 35.9091 296.536 36.1477C296.884 36.3826 297.325 36.5 297.859 36.5ZM305.443 32.25V37.5H304.102V28.7727H305.398V30.1364H305.511C305.716 29.6932 306.027 29.3371 306.443 29.0682C306.86 28.7955 307.398 28.6591 308.057 28.6591C308.648 28.6591 309.165 28.7803 309.608 29.0227C310.051 29.2614 310.396 29.625 310.642 30.1136C310.888 30.5985 311.011 31.2121 311.011 31.9545V37.5H309.67V32.0455C309.67 31.3598 309.492 30.8258 309.136 30.4432C308.78 30.0568 308.292 29.8636 307.67 29.8636C307.242 29.8636 306.86 29.9564 306.523 30.142C306.189 30.3277 305.926 30.5985 305.733 30.9545C305.54 31.3106 305.443 31.7424 305.443 32.25ZM317.007 37.6818C316.189 37.6818 315.484 37.4886 314.893 37.1023C314.303 36.7159 313.848 36.1837 313.53 35.5057C313.212 34.8277 313.053 34.053 313.053 33.1818C313.053 32.2955 313.215 31.5133 313.541 30.8352C313.871 30.1534 314.329 29.6212 314.916 29.2386C315.507 28.8523 316.196 28.6591 316.984 28.6591C317.598 28.6591 318.151 28.7727 318.643 29C319.136 29.2273 319.539 29.5455 319.854 29.9545C320.168 30.3636 320.363 30.8409 320.439 31.3864H319.098C318.996 30.9886 318.768 30.6364 318.416 30.3295C318.068 30.0189 317.598 29.8636 317.007 29.8636C316.484 29.8636 316.026 30 315.632 30.2727C315.242 30.5417 314.937 30.9223 314.717 31.4148C314.501 31.9034 314.393 32.4773 314.393 33.1364C314.393 33.8106 314.5 34.3977 314.712 34.8977C314.928 35.3977 315.231 35.786 315.621 36.0625C316.015 36.339 316.477 36.4773 317.007 36.4773C317.356 36.4773 317.672 36.4167 317.956 36.2955C318.24 36.1742 318.481 36 318.678 35.7727C318.875 35.5455 319.015 35.2727 319.098 34.9545H320.439C320.363 35.4697 320.176 35.9337 319.876 36.3466C319.581 36.7557 319.189 37.0814 318.7 37.3239C318.215 37.5625 317.651 37.6818 317.007 37.6818ZM326.058 37.6818C325.217 37.6818 324.492 37.4962 323.882 37.125C323.276 36.75 322.808 36.2273 322.479 35.5568C322.153 34.8826 321.99 34.0985 321.99 33.2045C321.99 32.3106 322.153 31.5227 322.479 30.8409C322.808 30.1553 323.267 29.6212 323.854 29.2386C324.445 28.8523 325.134 28.6591 325.922 28.6591C326.376 28.6591 326.825 28.7348 327.268 28.8864C327.712 29.0379 328.115 29.2841 328.479 29.625C328.842 29.9621 329.132 30.4091 329.348 30.9659C329.564 31.5227 329.672 32.2083 329.672 33.0227V33.5909H322.945V32.4318H328.308C328.308 31.9394 328.21 31.5 328.013 31.1136C327.82 30.7273 327.543 30.4223 327.183 30.1989C326.827 29.9754 326.407 29.8636 325.922 29.8636C325.388 29.8636 324.926 29.9962 324.536 30.2614C324.149 30.5227 323.852 30.8636 323.643 31.2841C323.435 31.7045 323.331 32.1553 323.331 32.6364V33.4091C323.331 34.0682 323.445 34.6269 323.672 35.0852C323.903 35.5398 324.223 35.8864 324.632 36.125C325.041 36.3598 325.517 36.4773 326.058 36.4773C326.411 36.4773 326.729 36.428 327.013 36.3295C327.301 36.2273 327.549 36.0758 327.757 35.875C327.965 35.6705 328.126 35.4167 328.24 35.1136L329.536 35.4773C329.399 35.9167 329.17 36.303 328.848 36.6364C328.526 36.9659 328.128 37.2235 327.655 37.4091C327.181 37.5909 326.649 37.6818 326.058 37.6818Z" fill="white"/>
<path d="M205.489 65.2273V88.5H201.239L191.114 73.8523H190.943V88.5H186.023V65.2273H190.341L200.386 79.8636H200.591V65.2273H205.489ZM209.418 88.5V84.9545L217.702 77.2841C218.406 76.6023 218.997 75.9886 219.474 75.4432C219.959 74.8977 220.327 74.3636 220.577 73.8409C220.827 73.3106 220.952 72.7386 220.952 72.125C220.952 71.4432 220.796 70.8561 220.486 70.3636C220.175 69.8636 219.751 69.4811 219.213 69.2159C218.675 68.9432 218.065 68.8068 217.384 68.8068C216.671 68.8068 216.05 68.9508 215.52 69.2386C214.99 69.5265 214.58 69.9394 214.293 70.4773C214.005 71.0152 213.861 71.6553 213.861 72.3977H209.19C209.19 70.875 209.535 69.553 210.224 68.4318C210.914 67.3106 211.88 66.4432 213.122 65.8295C214.365 65.2159 215.796 64.9091 217.418 64.9091C219.084 64.9091 220.535 65.2045 221.77 65.7955C223.012 66.3788 223.978 67.1894 224.668 68.2273C225.357 69.2652 225.702 70.4545 225.702 71.7955C225.702 72.6742 225.527 73.5417 225.179 74.3977C224.838 75.2538 224.228 76.2045 223.349 77.25C222.471 78.2879 221.232 79.5341 219.634 80.9886L216.236 84.3182V84.4773H226.009V88.5H209.418ZM239.699 65.2273V88.5H234.778V69.8977H234.642L229.312 73.2386V68.875L235.074 65.2273H239.699ZM249.287 85.3182L249.162 86.5682C249.063 87.5682 248.874 88.5644 248.594 89.5568C248.321 90.5568 248.033 91.4621 247.73 92.2727C247.435 93.0833 247.196 93.7197 247.014 94.1818H243.878C243.991 93.7348 244.147 93.1098 244.344 92.3068C244.541 91.5114 244.726 90.6174 244.901 89.625C245.075 88.6326 245.185 87.6212 245.23 86.5909L245.287 85.3182H249.287ZM261.52 88.8182C259.823 88.8182 258.312 88.5265 256.986 87.9432C255.668 87.3523 254.626 86.5417 253.861 85.5114C253.103 84.4735 252.713 83.2765 252.69 81.9205H257.645C257.675 82.4886 257.861 82.9886 258.202 83.4205C258.55 83.8447 259.012 84.1742 259.588 84.4091C260.164 84.6439 260.812 84.7614 261.531 84.7614C262.281 84.7614 262.944 84.6288 263.52 84.3636C264.096 84.0985 264.546 83.7311 264.872 83.2614C265.198 82.7917 265.361 82.25 265.361 81.6364C265.361 81.0152 265.187 80.4659 264.838 79.9886C264.497 79.5038 264.005 79.125 263.361 78.8523C262.724 78.5795 261.967 78.4432 261.088 78.4432H258.918V74.8295H261.088C261.83 74.8295 262.486 74.7008 263.054 74.4432C263.63 74.1856 264.077 73.8295 264.395 73.375C264.713 72.9129 264.872 72.375 264.872 71.7614C264.872 71.178 264.732 70.6667 264.452 70.2273C264.179 69.7803 263.793 69.4318 263.293 69.1818C262.8 68.9318 262.224 68.8068 261.565 68.8068C260.899 68.8068 260.289 68.928 259.736 69.1705C259.183 69.4053 258.74 69.7424 258.406 70.1818C258.073 70.6212 257.895 71.1364 257.872 71.7273H253.156C253.179 70.3864 253.562 69.2045 254.304 68.1818C255.046 67.1591 256.046 66.3598 257.304 65.7841C258.569 65.2008 259.997 64.9091 261.588 64.9091C263.194 64.9091 264.599 65.2008 265.804 65.7841C267.009 66.3674 267.944 67.1553 268.611 68.1477C269.285 69.1326 269.618 70.2386 269.611 71.4659C269.618 72.7689 269.213 73.8561 268.395 74.7273C267.584 75.5985 266.527 76.1515 265.224 76.3864V76.5682C266.937 76.7879 268.24 77.3826 269.134 78.3523C270.035 79.3144 270.482 80.5189 270.474 81.9659C270.482 83.2917 270.099 84.4697 269.327 85.5C268.562 86.5303 267.505 87.3409 266.156 87.9318C264.808 88.5227 263.262 88.8182 261.52 88.8182ZM282.511 88.8182C280.905 88.8182 279.473 88.5227 278.216 87.9318C276.966 87.3409 275.973 86.5265 275.239 85.4886C274.504 84.4508 274.121 83.2614 274.091 81.9205H278.864C278.917 82.822 279.295 83.553 280 84.1136C280.705 84.6742 281.542 84.9545 282.511 84.9545C283.284 84.9545 283.966 84.7841 284.557 84.4432C285.155 84.0947 285.621 83.6136 285.955 83C286.295 82.3788 286.466 81.6667 286.466 80.8636C286.466 80.0455 286.292 79.3258 285.943 78.7045C285.602 78.0833 285.129 77.5985 284.523 77.25C283.917 76.9015 283.223 76.7235 282.443 76.7159C281.761 76.7159 281.098 76.8561 280.455 77.1364C279.818 77.4167 279.322 77.7992 278.966 78.2841L274.591 77.5L275.693 65.2273H289.92V69.25H279.75L279.148 75.0795H279.284C279.693 74.5038 280.311 74.0265 281.136 73.6477C281.962 73.2689 282.886 73.0795 283.909 73.0795C285.311 73.0795 286.561 73.4091 287.659 74.0682C288.758 74.7273 289.625 75.6326 290.261 76.7841C290.898 77.928 291.212 79.2462 291.205 80.7386C291.212 82.3068 290.848 83.7008 290.114 84.9205C289.386 86.1326 288.367 87.0871 287.057 87.7841C285.754 88.4735 284.239 88.8182 282.511 88.8182ZM303.761 89.0114C301.807 89.0038 300.125 88.5227 298.716 87.5682C297.314 86.6136 296.235 85.2311 295.477 83.4205C294.727 81.6098 294.356 79.4318 294.364 76.8864C294.364 74.3485 294.739 72.1856 295.489 70.3977C296.246 68.6098 297.326 67.25 298.727 66.3182C300.136 65.3788 301.814 64.9091 303.761 64.9091C305.708 64.9091 307.383 65.3788 308.784 66.3182C310.193 67.2576 311.277 68.6212 312.034 70.4091C312.792 72.1894 313.167 74.3485 313.159 76.8864C313.159 79.4394 312.78 81.6212 312.023 83.4318C311.273 85.2424 310.197 86.625 308.795 87.5795C307.394 88.5341 305.716 89.0114 303.761 89.0114ZM303.761 84.9318C305.095 84.9318 306.159 84.2614 306.955 82.9205C307.75 81.5795 308.144 79.5682 308.136 76.8864C308.136 75.1212 307.955 73.6515 307.591 72.4773C307.235 71.303 306.727 70.4205 306.068 69.8295C305.417 69.2386 304.648 68.9432 303.761 68.9432C302.436 68.9432 301.375 69.6061 300.58 70.9318C299.784 72.2576 299.383 74.2424 299.375 76.8864C299.375 78.6742 299.553 80.1667 299.909 81.3636C300.273 82.553 300.784 83.447 301.443 84.0455C302.102 84.6364 302.875 84.9318 303.761 84.9318ZM318.605 88.7955C317.855 88.7955 317.211 88.5303 316.673 88C316.143 87.4621 315.878 86.8182 315.878 86.0682C315.878 85.3258 316.143 84.6894 316.673 84.1591C317.211 83.6288 317.855 83.3636 318.605 83.3636C319.332 83.3636 319.969 83.6288 320.514 84.1591C321.06 84.6894 321.332 85.3258 321.332 86.0682C321.332 86.5682 321.204 87.0265 320.946 87.4432C320.696 87.8523 320.366 88.1818 319.957 88.4318C319.548 88.6742 319.098 88.7955 318.605 88.7955ZM333.449 89.0114C331.494 89.0038 329.813 88.5227 328.403 87.5682C327.002 86.6136 325.922 85.2311 325.165 83.4205C324.415 81.6098 324.044 79.4318 324.051 76.8864C324.051 74.3485 324.426 72.1856 325.176 70.3977C325.934 68.6098 327.013 67.25 328.415 66.3182C329.824 65.3788 331.502 64.9091 333.449 64.9091C335.396 64.9091 337.07 65.3788 338.472 66.3182C339.881 67.2576 340.964 68.6212 341.722 70.4091C342.479 72.1894 342.854 74.3485 342.847 76.8864C342.847 79.4394 342.468 81.6212 341.71 83.4318C340.96 85.2424 339.884 86.625 338.483 87.5795C337.081 88.5341 335.403 89.0114 333.449 89.0114ZM333.449 84.9318C334.782 84.9318 335.847 84.2614 336.642 82.9205C337.438 81.5795 337.831 79.5682 337.824 76.8864C337.824 75.1212 337.642 73.6515 337.278 72.4773C336.922 71.303 336.415 70.4205 335.756 69.8295C335.104 69.2386 334.335 68.9432 333.449 68.9432C332.123 68.9432 331.063 69.6061 330.267 70.9318C329.472 72.2576 329.07 74.2424 329.062 76.8864C329.062 78.6742 329.241 80.1667 329.597 81.3636C329.96 82.553 330.472 83.447 331.131 84.0455C331.79 84.6364 332.562 84.9318 333.449 84.9318ZM355.48 89.0114C353.526 89.0038 351.844 88.5227 350.435 87.5682C349.033 86.6136 347.954 85.2311 347.196 83.4205C346.446 81.6098 346.075 79.4318 346.082 76.8864C346.082 74.3485 346.457 72.1856 347.207 70.3977C347.965 68.6098 349.045 67.25 350.446 66.3182C351.855 65.3788 353.533 64.9091 355.48 64.9091C357.427 64.9091 359.101 65.3788 360.503 66.3182C361.912 67.2576 362.995 68.6212 363.753 70.4091C364.51 72.1894 364.885 74.3485 364.878 76.8864C364.878 79.4394 364.499 81.6212 363.741 83.4318C362.991 85.2424 361.916 86.625 360.514 87.5795C359.113 88.5341 357.435 89.0114 355.48 89.0114ZM355.48 84.9318C356.813 84.9318 357.878 84.2614 358.673 82.9205C359.469 81.5795 359.863 79.5682 359.855 76.8864C359.855 75.1212 359.673 73.6515 359.31 72.4773C358.954 71.303 358.446 70.4205 357.787 69.8295C357.135 69.2386 356.366 68.9432 355.48 68.9432C354.154 68.9432 353.094 69.6061 352.298 70.9318C351.503 72.2576 351.101 74.2424 351.094 76.8864C351.094 78.6742 351.272 80.1667 351.628 81.3636C351.991 82.553 352.503 83.447 353.162 84.0455C353.821 84.6364 354.594 84.9318 355.48 84.9318Z" fill="white"/>
<g opacity="0.8">
<rect x="226" y="100.5" width="99" height="28" rx="14" fill="black" fill-opacity="0.05"/>
<path d="M235.179 118.5H234.256L236.926 111.227H237.835L240.506 118.5H239.582L237.409 112.378H237.352L235.179 118.5ZM235.52 115.659H239.241V116.44H235.52V115.659ZM243.741 118.614C243.229 118.614 242.789 118.493 242.42 118.251C242.05 118.01 241.766 117.677 241.567 117.254C241.369 116.83 241.269 116.346 241.269 115.801C241.269 115.247 241.371 114.758 241.575 114.335C241.781 113.908 242.067 113.576 242.434 113.337C242.803 113.095 243.234 112.974 243.727 112.974C244.11 112.974 244.456 113.045 244.763 113.188C245.071 113.33 245.323 113.528 245.52 113.784C245.716 114.04 245.838 114.338 245.886 114.679H245.048C244.984 114.43 244.842 114.21 244.621 114.018C244.404 113.824 244.11 113.727 243.741 113.727C243.414 113.727 243.128 113.812 242.881 113.983C242.638 114.151 242.447 114.389 242.31 114.697C242.175 115.002 242.107 115.361 242.107 115.773C242.107 116.194 242.174 116.561 242.306 116.874C242.441 117.186 242.63 117.429 242.874 117.602C243.121 117.774 243.409 117.861 243.741 117.861C243.959 117.861 244.156 117.823 244.334 117.747C244.511 117.671 244.662 117.562 244.785 117.42C244.908 117.278 244.996 117.108 245.048 116.909H245.886C245.838 117.231 245.721 117.521 245.534 117.779C245.349 118.035 245.104 118.238 244.799 118.39C244.496 118.539 244.143 118.614 243.741 118.614ZM249.327 118.614C248.815 118.614 248.375 118.493 248.006 118.251C247.636 118.01 247.352 117.677 247.153 117.254C246.955 116.83 246.855 116.346 246.855 115.801C246.855 115.247 246.957 114.758 247.161 114.335C247.366 113.908 247.653 113.576 248.02 113.337C248.389 113.095 248.82 112.974 249.312 112.974C249.696 112.974 250.042 113.045 250.349 113.188C250.657 113.33 250.909 113.528 251.106 113.784C251.302 114.04 251.424 114.338 251.472 114.679H250.634C250.57 114.43 250.428 114.21 250.207 114.018C249.99 113.824 249.696 113.727 249.327 113.727C249 113.727 248.714 113.812 248.467 113.983C248.223 114.151 248.033 114.389 247.896 114.697C247.761 115.002 247.693 115.361 247.693 115.773C247.693 116.194 247.759 116.561 247.892 116.874C248.027 117.186 248.216 117.429 248.46 117.602C248.706 117.774 248.995 117.861 249.327 117.861C249.545 117.861 249.742 117.823 249.92 117.747C250.097 117.671 250.248 117.562 250.371 117.42C250.494 117.278 250.581 117.108 250.634 116.909H251.472C251.424 117.231 251.307 117.521 251.12 117.779C250.935 118.035 250.69 118.238 250.385 118.39C250.082 118.539 249.729 118.614 249.327 118.614ZM254.913 118.614C254.42 118.614 253.988 118.496 253.616 118.262C253.247 118.028 252.958 117.7 252.75 117.278C252.544 116.857 252.441 116.365 252.441 115.801C252.441 115.233 252.544 114.737 252.75 114.313C252.958 113.889 253.247 113.56 253.616 113.326C253.988 113.092 254.42 112.974 254.913 112.974C255.405 112.974 255.836 113.092 256.205 113.326C256.577 113.56 256.866 113.889 257.072 114.313C257.28 114.737 257.384 115.233 257.384 115.801C257.384 116.365 257.28 116.857 257.072 117.278C256.866 117.7 256.577 118.028 256.205 118.262C255.836 118.496 255.405 118.614 254.913 118.614ZM254.913 117.861C255.287 117.861 255.594 117.765 255.836 117.573C256.077 117.381 256.256 117.129 256.372 116.817C256.488 116.504 256.546 116.166 256.546 115.801C256.546 115.437 256.488 115.097 256.372 114.782C256.256 114.467 256.077 114.213 255.836 114.018C255.594 113.824 255.287 113.727 254.913 113.727C254.539 113.727 254.231 113.824 253.989 114.018C253.748 114.213 253.569 114.467 253.453 114.782C253.337 115.097 253.279 115.437 253.279 115.801C253.279 116.166 253.337 116.504 253.453 116.817C253.569 117.129 253.748 117.381 253.989 117.573C254.231 117.765 254.539 117.861 254.913 117.861ZM262.101 116.27V113.045H262.939V118.5H262.101V117.577H262.044C261.916 117.854 261.718 118.089 261.448 118.283C261.178 118.475 260.837 118.571 260.425 118.571C260.084 118.571 259.781 118.496 259.516 118.347C259.251 118.196 259.042 117.969 258.891 117.665C258.739 117.36 258.664 116.975 258.664 116.511V113.045H259.502V116.455C259.502 116.852 259.613 117.17 259.835 117.406C260.06 117.643 260.347 117.761 260.695 117.761C260.903 117.761 261.115 117.708 261.33 117.602C261.548 117.495 261.731 117.332 261.877 117.112C262.026 116.891 262.101 116.611 262.101 116.27ZM265.312 115.219V118.5H264.474V113.045H265.284V113.898H265.355C265.483 113.621 265.677 113.398 265.937 113.23C266.198 113.06 266.534 112.974 266.946 112.974C267.315 112.974 267.638 113.05 267.915 113.202C268.192 113.351 268.408 113.578 268.561 113.884C268.715 114.187 268.792 114.57 268.792 115.034V118.5H267.954V115.091C267.954 114.662 267.843 114.329 267.62 114.089C267.398 113.848 267.092 113.727 266.704 113.727C266.437 113.727 266.198 113.785 265.987 113.901C265.779 114.017 265.614 114.187 265.493 114.409C265.373 114.632 265.312 114.902 265.312 115.219ZM272.696 113.045V113.756H269.869V113.045H272.696ZM270.693 111.739H271.531V116.938C271.531 117.174 271.565 117.352 271.634 117.47C271.705 117.586 271.795 117.664 271.904 117.705C272.015 117.742 272.132 117.761 272.256 117.761C272.348 117.761 272.424 117.757 272.483 117.747C272.542 117.735 272.589 117.726 272.625 117.719L272.795 118.472C272.738 118.493 272.659 118.514 272.557 118.536C272.456 118.559 272.327 118.571 272.17 118.571C271.934 118.571 271.702 118.52 271.474 118.418C271.249 118.317 271.062 118.161 270.913 117.953C270.766 117.745 270.693 117.482 270.693 117.165V111.739ZM276.769 118.5V113.045H277.607V118.5H276.769ZM277.195 112.136C277.032 112.136 276.891 112.081 276.773 111.969C276.657 111.858 276.599 111.724 276.599 111.568C276.599 111.412 276.657 111.278 276.773 111.167C276.891 111.056 277.032 111 277.195 111C277.358 111 277.498 111.056 277.614 111.167C277.733 111.278 277.792 111.412 277.792 111.568C277.792 111.724 277.733 111.858 277.614 111.969C277.498 112.081 277.358 112.136 277.195 112.136ZM283.006 114.267L282.253 114.48C282.205 114.355 282.136 114.233 282.043 114.114C281.953 113.994 281.83 113.894 281.674 113.816C281.518 113.738 281.318 113.699 281.074 113.699C280.74 113.699 280.462 113.776 280.239 113.93C280.019 114.081 279.909 114.274 279.909 114.509C279.909 114.717 279.985 114.881 280.136 115.002C280.288 115.123 280.525 115.223 280.847 115.304L281.656 115.503C282.144 115.621 282.507 115.802 282.746 116.046C282.986 116.288 283.105 116.599 283.105 116.98C283.105 117.293 283.015 117.572 282.835 117.818C282.658 118.064 282.409 118.259 282.089 118.401C281.77 118.543 281.398 118.614 280.974 118.614C280.418 118.614 279.958 118.493 279.593 118.251C279.228 118.01 278.998 117.657 278.901 117.193L279.696 116.994C279.772 117.288 279.915 117.508 280.126 117.655C280.339 117.802 280.617 117.875 280.96 117.875C281.351 117.875 281.661 117.792 281.891 117.626C282.123 117.458 282.239 117.257 282.239 117.023C282.239 116.833 282.172 116.675 282.04 116.547C281.907 116.417 281.704 116.32 281.429 116.256L280.52 116.043C280.02 115.924 279.653 115.741 279.419 115.492C279.187 115.241 279.071 114.928 279.071 114.551C279.071 114.243 279.157 113.971 279.33 113.734C279.505 113.498 279.743 113.312 280.044 113.177C280.347 113.042 280.69 112.974 281.074 112.974C281.614 112.974 282.037 113.093 282.345 113.33C282.655 113.566 282.875 113.879 283.006 114.267ZM288.784 118.628C288.439 118.628 288.125 118.563 287.843 118.433C287.561 118.3 287.338 118.109 287.172 117.861C287.006 117.61 286.923 117.307 286.923 116.952C286.923 116.639 286.985 116.386 287.108 116.192C287.231 115.995 287.396 115.841 287.602 115.73C287.808 115.619 288.035 115.536 288.284 115.482C288.535 115.425 288.787 115.38 289.04 115.347C289.371 115.304 289.64 115.272 289.846 115.251C290.054 115.227 290.206 115.188 290.301 115.134C290.398 115.079 290.446 114.984 290.446 114.849V114.821C290.446 114.471 290.35 114.198 290.159 114.004C289.969 113.81 289.682 113.713 289.296 113.713C288.896 113.713 288.582 113.801 288.355 113.976C288.127 114.151 287.968 114.338 287.875 114.537L287.08 114.253C287.222 113.921 287.411 113.663 287.648 113.479C287.887 113.292 288.147 113.161 288.429 113.088C288.713 113.012 288.993 112.974 289.267 112.974C289.442 112.974 289.644 112.996 289.871 113.038C290.101 113.079 290.322 113.163 290.535 113.29C290.75 113.418 290.929 113.611 291.071 113.869C291.213 114.127 291.284 114.473 291.284 114.906V118.5H290.446V117.761H290.404C290.347 117.88 290.252 118.006 290.119 118.141C289.987 118.276 289.811 118.391 289.59 118.486C289.37 118.58 289.102 118.628 288.784 118.628ZM288.912 117.875C289.244 117.875 289.523 117.81 289.75 117.68C289.98 117.549 290.153 117.381 290.269 117.175C290.387 116.969 290.446 116.753 290.446 116.526V115.759C290.411 115.801 290.333 115.84 290.212 115.876C290.093 115.909 289.956 115.938 289.8 115.964C289.646 115.988 289.496 116.009 289.349 116.028C289.204 116.045 289.087 116.059 288.997 116.071C288.78 116.099 288.576 116.146 288.387 116.21C288.2 116.271 288.048 116.365 287.932 116.49C287.818 116.613 287.762 116.781 287.762 116.994C287.762 117.286 287.869 117.506 288.085 117.655C288.302 117.802 288.578 117.875 288.912 117.875ZM295.03 118.614C294.518 118.614 294.078 118.493 293.709 118.251C293.339 118.01 293.055 117.677 292.857 117.254C292.658 116.83 292.558 116.346 292.558 115.801C292.558 115.247 292.66 114.758 292.864 114.335C293.07 113.908 293.356 113.576 293.723 113.337C294.092 113.095 294.523 112.974 295.016 112.974C295.399 112.974 295.745 113.045 296.053 113.188C296.36 113.33 296.612 113.528 296.809 113.784C297.005 114.04 297.127 114.338 297.175 114.679H296.337C296.273 114.43 296.131 114.21 295.911 114.018C295.693 113.824 295.399 113.727 295.03 113.727C294.703 113.727 294.417 113.812 294.17 113.983C293.927 114.151 293.736 114.389 293.599 114.697C293.464 115.002 293.396 115.361 293.396 115.773C293.396 116.194 293.463 116.561 293.595 116.874C293.73 117.186 293.92 117.429 294.163 117.602C294.41 117.774 294.698 117.861 295.03 117.861C295.248 117.861 295.445 117.823 295.623 117.747C295.8 117.671 295.951 117.562 296.074 117.42C296.197 117.278 296.285 117.108 296.337 116.909H297.175C297.127 117.231 297.01 117.521 296.823 117.779C296.638 118.035 296.393 118.238 296.088 118.39C295.785 118.539 295.432 118.614 295.03 118.614ZM300.772 113.045V113.756H297.945V113.045H300.772ZM298.769 111.739H299.607V116.938C299.607 117.174 299.642 117.352 299.71 117.47C299.781 117.586 299.871 117.664 299.98 117.705C300.091 117.742 300.209 117.761 300.332 117.761C300.424 117.761 300.5 117.757 300.559 117.747C300.618 117.735 300.665 117.726 300.701 117.719L300.871 118.472C300.815 118.493 300.735 118.514 300.634 118.536C300.532 118.559 300.403 118.571 300.246 118.571C300.01 118.571 299.778 118.52 299.55 118.418C299.326 118.317 299.138 118.161 298.989 117.953C298.843 117.745 298.769 117.482 298.769 117.165V111.739ZM302.033 118.5V113.045H302.871V118.5H302.033ZM302.459 112.136C302.295 112.136 302.155 112.081 302.036 111.969C301.92 111.858 301.862 111.724 301.862 111.568C301.862 111.412 301.92 111.278 302.036 111.167C302.155 111.056 302.295 111 302.459 111C302.622 111 302.762 111.056 302.878 111.167C302.996 111.278 303.055 111.412 303.055 111.568C303.055 111.724 302.996 111.858 302.878 111.969C302.762 112.081 302.622 112.136 302.459 112.136ZM308.866 113.045L306.849 118.5H305.997L303.98 113.045H304.889L306.394 117.392H306.451L307.957 113.045H308.866ZM312.064 118.614C311.538 118.614 311.085 118.498 310.704 118.266C310.325 118.031 310.032 117.705 309.827 117.286C309.623 116.864 309.521 116.374 309.521 115.815C309.521 115.257 309.623 114.764 309.827 114.338C310.032 113.91 310.319 113.576 310.686 113.337C311.055 113.095 311.486 112.974 311.979 112.974C312.263 112.974 312.543 113.022 312.82 113.116C313.097 113.211 313.349 113.365 313.577 113.578C313.804 113.789 313.985 114.068 314.12 114.416C314.255 114.764 314.322 115.193 314.322 115.702V116.057H310.118V115.332H313.47C313.47 115.025 313.408 114.75 313.285 114.509C313.165 114.267 312.992 114.076 312.767 113.937C312.544 113.797 312.282 113.727 311.979 113.727C311.645 113.727 311.356 113.81 311.112 113.976C310.871 114.139 310.685 114.352 310.555 114.615C310.424 114.878 310.359 115.16 310.359 115.46V115.943C310.359 116.355 310.43 116.704 310.572 116.991C310.717 117.275 310.917 117.491 311.172 117.641C311.428 117.787 311.725 117.861 312.064 117.861C312.284 117.861 312.483 117.83 312.66 117.768C312.84 117.705 312.995 117.61 313.126 117.484C313.256 117.357 313.356 117.198 313.427 117.009L314.237 117.236C314.152 117.51 314.009 117.752 313.807 117.96C313.606 118.166 313.358 118.327 313.062 118.443C312.766 118.557 312.433 118.614 312.064 118.614Z" fill="white"/>
<rect x="226.5" y="101" width="98" height="27" rx="13.5" stroke="black" stroke-opacity="0.04"/>
</g>
</svg>
